<svg xmlns="http://www.w3.org/2000/svg" width="12" height="11" viewBox="0 0 12 11">
    <path fill="#576162" fill-rule="nonzero" d="M.415 6.55h.977v4.02c0 .236.188.43.419.43h2.862c.23 0 .42-.194.42-.43V7.626h1.745v2.942c0 .237.188.431.419.431h2.722c.23 0 .42-.194.42-.43V6.55h1.186a.419.419 0 0 0 .384-.265.442.442 0 0 0-.09-.467L6.418.128A.41.41 0 0 0 5.832.12L.128 5.811a.44.44 0 0 0-.097.474.409.409 0 0 0 .384.265zM6.112 1.04l4.468 4.65h-.6a.426.426 0 0 0-.42.43v4.02H7.676V7.196a.426.426 0 0 0-.418-.43H4.673a.426.426 0 0 0-.419.43v2.943H2.23v-4.02a.426.426 0 0 0-.42-.43h-.362l4.664-4.65z"/>
</svg>
