<svg xmlns="http://www.w3.org/2000/svg" width="58" height="28" viewBox="0 0 58 28">
    <path fill="#E2E2E2" fill-rule="evenodd" d="M6.5 13a6.5 6.5 0 1 1 0-13 6.5 6.5 0 0 1 0 13zm0 15a6.5 6.5 0 1 1 0-13 6.5 6.5 0 0 1 0 13zm15-15a6.5 6.5 0 1 1 0-13 6.5 6.5 0 0 1 0 13zm0 15a6.5 6.5 0 1 1 0-13 6.5 6.5 0 0 1 0 13zm15-15a6.5 6.5 0 1 1 0-13 6.5 6.5 0 0 1 0 13zm15 0a6.5 6.5 0 1 1 0-13 6.5 6.5 0 0 1 0 13zm-15 15a6.5 6.5 0 1 1 0-13 6.5 6.5 0 0 1 0 13zm15 0a6.5 6.5 0 1 1 0-13 6.5 6.5 0 0 1 0 13z"/>
</svg>
