<?xml version="1.0" encoding="UTF-8"?>
<svg width="20px" height="20px" viewBox="0 0 20 20" version="1.1" xmlns="http://www.w3.org/2000/svg" xmlns:xlink="http://www.w3.org/1999/xlink">
    <!-- Generator: sketchtool 53 (72520) - https://sketchapp.com -->
    <title>56211190-5DF2-44BB-B51B-942409F946B7</title>
    <desc>Created with sketchtool.</desc>
    <g id="Ürün-Detay" stroke="none" stroke-width="1" fill="none" fill-rule="evenodd">
        <g transform="translate(-1019.000000, -709.000000)" id="Group-31">
            <g transform="translate(1019.000000, 709.000000)">
                <rect id="Rectangle-Copy-5" fill="#4A71A9" x="0" y="0" width="20" height="20" rx="9.85915493"></rect>
                <path d="M12.0812902,5.43065209 L10.7792228,5.42857143 C9.31639466,5.42857143 8.37105089,6.39452131 8.37105089,7.88958491 L8.37105089,9.02427694 L7.06188029,9.02427694 C6.94875243,9.02427694 6.85714286,9.11561823 6.85714286,9.22828637 L6.85714286,10.8723258 C6.85714286,10.9849939 6.94885689,11.0762312 7.06188029,11.0762312 L8.37105089,11.0762312 L8.37105089,15.224666 C8.37105089,15.3373342 8.46266043,15.4285714 8.57578831,15.4285714 L10.2838835,15.4285714 C10.3970114,15.4285714 10.488621,15.3372301 10.488621,15.224666 L10.488621,11.0762312 L12.0193467,11.0762312 C12.1324746,11.0762312 12.2240841,10.9849939 12.2240841,10.8723258 L12.2247109,9.22828637 C12.2247109,9.17418903 12.2030881,9.1223804 12.1647521,9.08409611 C12.126416,9.04581183 12.0741871,9.02427694 12.019869,9.02427694 L10.488621,9.02427694 L10.488621,8.06238434 C10.488621,7.60006003 10.5992419,7.36536074 11.2039485,7.36536074 L12.0810813,7.36504866 C12.1941047,7.36504866 12.2857143,7.27370734 12.2857143,7.16114323 L12.2857143,5.63455751 C12.2857143,5.52209743 12.1942092,5.43086017 12.0812902,5.43065209 Z" id="Path-Copy-4" fill="#FFFFFF"></path>
            </g>
        </g>
    </g>
</svg>