<?xml version="1.0" encoding="UTF-8"?>
<svg width="20px" height="20px" viewBox="0 0 20 20" version="1.1" xmlns="http://www.w3.org/2000/svg" xmlns:xlink="http://www.w3.org/1999/xlink">
    <!-- Generator: sketchtool 53 (72520) - https://sketchapp.com -->
    <title>2353A9ED-A544-4E88-8DBB-1C2F57F92E77</title>
    <desc>Created with sketchtool.</desc>
    <g id="Ürün-Detay" stroke="none" stroke-width="1" fill="none" fill-rule="evenodd">
        <g transform="translate(-1070.000000, -709.000000)" id="Group-34">
            <g transform="translate(1070.000000, 709.000000)">
                <rect id="Rectangle-Copy-9" fill="#E43B1E" x="0" y="0" width="20" height="20" rx="9.85915493"></rect>
                <g id="Group-33" transform="translate(3.714286, 6.285714)" fill="#FFFFFF">
                    <polygon id="Path-Copy-6" points="11.6071429 3.37142857 11.6071429 1.71428571 10.7857143 1.71428571 10.7857143 3.37142857 9.14285714 3.37142857 9.14285714 4.2 10.7857143 4.2 10.7857143 5.85714286 11.6071429 5.85714286 11.6071429 4.2 13.25 4.2 13.25 3.37142857"></polygon>
                    <path d="M4.10714286,3.31428571 L4.10714286,4.97142857 L6.43096429,4.97142857 C6.09171429,5.93588571 5.17828571,6.62857143 4.10714286,6.62857143 C2.7485,6.62857143 1.64285714,5.51331429 1.64285714,4.14285714 C1.64285714,2.7724 2.7485,1.65714286 4.10714286,1.65714286 C4.69610714,1.65714286 5.26289286,1.87008571 5.70317857,2.25702857 L6.78253571,1.00754286 C6.04325,0.357942857 5.09367857,0 4.10714286,0 C1.84246429,0 0,1.85848571 0,4.14285714 C0,6.42722857 1.84246429,8.28571429 4.10714286,8.28571429 C6.37182143,8.28571429 8.21428571,6.42722857 8.21428571,4.14285714 L8.21428571,3.31428571 L4.10714286,3.31428571 Z" id="Path-Copy-7"></path>
                </g>
            </g>
        </g>
    </g>
</svg>