<svg xmlns="http://www.w3.org/2000/svg" width="13" height="13" viewBox="0 0 13 13">
    <g fill="none" fill-rule="evenodd">
        <path stroke="#E2E2E2" d="M3 .5A2.5 2.5 0 0 0 .5 3v7A2.5 2.5 0 0 0 3 12.5h7a2.5 2.5 0 0 0 2.5-2.5V3A2.5 2.5 0 0 0 10 .5H3z"/>
        <path fill="#576162" d="M6.233 10a.638.638 0 0 1-.5-.237L4.128 7.74a.58.58 0 0 1 .121-.836c.277-.2.67-.148.879.115l1.056 1.33 2.658-4.067a.646.646 0 0 1 .864-.192.581.581 0 0 1 .2.823l-3.14 4.805a.633.633 0 0 1-.532.282z"/>
    </g>
</svg>
