<svg xmlns="http://www.w3.org/2000/svg" width="16" height="19" viewBox="0 0 16 19">
    <defs>
        <linearGradient id="a" x1="25.468%" x2="87.795%" y1="38.065%" y2="72.436%">
            <stop offset="0%" stop-color="#FFF" stop-opacity=".2"/>
            <stop offset="100%" stop-color="#FFF" stop-opacity="0"/>
        </linearGradient>
    </defs>
    <g fill="none" fill-rule="evenodd">
        <path fill="#303C42" d="M14.38 7.125c-.294 0-.57.08-.808.218a1.593 1.593 0 0 0-1.584-1.405c-.39 0-.748.14-1.026.373a1.597 1.597 0 0 0-2.164-.557v-4.17A1.59 1.59 0 0 0 7.203 0c-.88 0-1.596.71-1.596 1.583v10.594a.39.39 0 0 1-.189.337.397.397 0 0 1-.388.017l-2.56-1.27a1.706 1.706 0 0 0-.756-.178c-.931 0-1.69.753-1.69 1.677v.303c0 .11.047.214.127.289l4.603 4.264A5.19 5.19 0 0 0 8.29 19h2.5c2.858 0 5.184-2.308 5.184-5.146V8.708a1.59 1.59 0 0 0-1.595-1.583z"/>
        <path fill="#FAFAFA" d="M15.178 13.854c0 2.401-1.968 4.354-4.387 4.354h-2.5a4.389 4.389 0 0 1-2.993-1.171L.822 12.89v-.13a.89.89 0 0 1 1.29-.791l2.562 1.27a1.197 1.197 0 0 0 1.731-1.062V1.583c0-.436.358-.791.797-.791.44 0 .798.355.798.791v5.938c0 .219.178.396.399.396.22 0 .399-.177.399-.396v-.396c0-.436.357-.792.797-.792.44 0 .798.356.798.792v.398c.001.218.179.394.398.394.22 0 .4-.177.4-.396v-.006a.796.796 0 0 1 .797-.786c.44 0 .797.355.797.792v1.187c0 .22.178.396.399.396.22 0 .399-.177.399-.396 0-.436.357-.791.797-.791.44 0 .798.355.798.791v5.146z"/>
        <path fill="#000" d="M14.38 7.917v5.146c0 2.4-1.858 4.354-4.143 4.354H7.876a4.021 4.021 0 0 1-2.826-1.172S.822 12.574.822 12.76v.13l4.476 4.147a4.39 4.39 0 0 0 2.993 1.171h2.5c2.419 0 4.387-1.953 4.387-4.354V8.708a.796.796 0 0 0-.798-.791z" opacity=".1"/>
        <path fill="url(#a)" d="M14.38 7.125c-.294 0-.57.08-.808.218a1.593 1.593 0 0 0-1.584-1.405c-.39 0-.748.14-1.026.373a1.597 1.597 0 0 0-2.164-.557v-4.17A1.59 1.59 0 0 0 7.203 0c-.88 0-1.596.71-1.596 1.583v10.594a.39.39 0 0 1-.189.337.397.397 0 0 1-.388.017l-2.56-1.27a1.706 1.706 0 0 0-.756-.178c-.931 0-1.69.753-1.69 1.677v.303c0 .11.047.214.127.289l4.603 4.264A5.19 5.19 0 0 0 8.29 19h2.5c2.858 0 5.184-2.308 5.184-5.146V8.708a1.59 1.59 0 0 0-1.595-1.583z"/>
    </g>
</svg>
