<?xml version="1.0" encoding="UTF-8"?>
<svg width="20px" height="20px" viewBox="0 0 20 20" version="1.1" xmlns="http://www.w3.org/2000/svg" xmlns:xlink="http://www.w3.org/1999/xlink">
    <!-- Generator: sketchtool 53 (72520) - https://sketchapp.com -->
    <title>F790FDCC-F2E8-4D6E-BE75-9A40C96C6468</title>
    <desc>Created with sketchtool.</desc>
    <g id="Ürün-Detay" stroke="none" stroke-width="1" fill="none" fill-rule="evenodd">
        <g transform="translate(-1095.000000, -709.000000)" id="Group-35">
            <g transform="translate(1095.000000, 709.000000)">
                <rect id="Rectangle-Copy-7" fill="#CD3339" x="0" y="0" width="20" height="20" rx="9.85915493"></rect>
                <path d="M14.2233762,8.36443643 C13.9329608,6.27787089 11.8388175,5.21545317 9.60445117,5.4642182 C7.83795437,5.66086414 6.07677006,7.07897677 6.0036634,9.10680254 C5.9591304,10.344745 6.31270523,11.2732073 7.49900526,11.5345409 C8.0127414,10.6318233 7.33353146,10.4345045 7.22719449,9.78055203 C6.79187749,7.10799937 10.332173,5.28274563 12.1864022,7.15024166 C13.4704037,8.44362449 12.6243645,12.4201097 10.5561496,12.0063696 C8.57498943,11.6117535 11.5264527,8.44627274 9.94538974,7.82531529 C8.66005466,7.31984037 7.97752166,9.3694602 8.58694797,10.3883332 C8.22939426,12.1403467 7.45980663,13.7900539 7.77149377,15.9868272 C8.7816732,15.2583103 9.12261174,13.8652912 9.40174631,12.411557 C9.90949226,12.7184106 10.1813249,13.035814 10.8286381,13.0853065 C13.2158639,13.2693839 14.5510226,10.7189128 14.2233762,8.36443643 Z" id="Path-Copy-8" fill="#FFFFFF"></path>
            </g>
        </g>
    </g>
</svg>