<svg xmlns="http://www.w3.org/2000/svg" width="16" height="19" viewBox="0 0 16 19">
    <defs>
        <linearGradient id="a" x1="25.468%" x2="87.795%" y1="38.065%" y2="72.436%">
            <stop offset="0%" stop-color="#FFF" stop-opacity=".2"/>
            <stop offset="100%" stop-color="#FFF" stop-opacity="0"/>
        </linearGradient>
    </defs>
    <path fill="url(#a)" fill-rule="evenodd" d="M14.38 7.125c-.294 0-.57.08-.808.218a1.593 1.593 0 0 0-1.584-1.405c-.39 0-.748.14-1.026.373a1.597 1.597 0 0 0-2.164-.557v-4.17A1.59 1.59 0 0 0 7.203 0c-.88 0-1.596.71-1.596 1.583v10.594a.39.39 0 0 1-.189.337.397.397 0 0 1-.388.017l-2.56-1.27a1.706 1.706 0 0 0-.756-.178c-.931 0-1.69.753-1.69 1.677v.303c0 .11.047.214.127.289l4.603 4.264A5.19 5.19 0 0 0 8.29 19h2.5c2.858 0 5.184-2.308 5.184-5.146V8.708a1.59 1.59 0 0 0-1.595-1.583z"/>
</svg>
