<svg xmlns="http://www.w3.org/2000/svg" width="16" height="19" viewBox="0 0 16 19">
    <path fill="#FAFAFA" fill-rule="evenodd" d="M15.178 13.854c0 2.401-1.968 4.354-4.387 4.354h-2.5a4.389 4.389 0 0 1-2.993-1.171L.822 12.89v-.13a.89.89 0 0 1 1.29-.791l2.562 1.27a1.197 1.197 0 0 0 1.731-1.062V1.583c0-.436.358-.791.797-.791.44 0 .798.355.798.791v5.938c0 .219.178.396.399.396.22 0 .399-.177.399-.396v-.396c0-.436.357-.792.797-.792.44 0 .798.356.798.792v.398c.001.218.179.394.398.394.22 0 .4-.177.4-.396v-.006a.796.796 0 0 1 .797-.786c.44 0 .797.355.797.792v1.187c0 .22.178.396.399.396.22 0 .399-.177.399-.396 0-.436.357-.791.797-.791.44 0 .798.355.798.791v5.146z"/>
</svg>
