<svg xmlns="http://www.w3.org/2000/svg" width="21" height="20" viewBox="0 0 21 20">
    <path fill="#9B9B9B" fill-rule="nonzero" d="M20.966 7.589a.695.695 0 0 0-.551-.471l-6.36-1.02L11.12.379a.696.696 0 0 0-1.238 0l-2.936 5.72-6.36 1.02a.695.695 0 0 0-.382 1.175l4.544 4.555-.994 6.35a.693.693 0 0 0 1.002.727l5.745-2.906 5.745 2.906a.695.695 0 0 0 1.002-.726l-.994-6.351 4.544-4.555a.693.693 0 0 0 .169-.704zm-5.948 4.529a.693.693 0 0 0-.194.596l.839 5.36-4.849-2.452a.697.697 0 0 0-.628 0l-4.849 2.452.839-5.36a.693.693 0 0 0-.194-.597L2.146 8.273l5.367-.86a.695.695 0 0 0 .509-.369L10.5 2.216l2.478 4.829c.101.196.29.333.509.369l5.367.86-3.836 3.844z"/>
</svg>
