<?xml version="1.0" encoding="UTF-8"?>
<svg width="20px" height="20px" viewBox="0 0 20 20" version="1.1" xmlns="http://www.w3.org/2000/svg" xmlns:xlink="http://www.w3.org/1999/xlink">
    <!-- Generator: sketchtool 53 (72520) - https://sketchapp.com -->
    <title>A9C5FAA6-58E4-4AA7-9B87-0B73E3E92DC3</title>
    <desc>Created with sketchtool.</desc>
    <g id="Ürün-Detay" stroke="none" stroke-width="1" fill="none" fill-rule="evenodd">
        <g transform="translate(-1044.000000, -709.000000)" id="Group-32">
            <g transform="translate(1044.000000, 709.000000)">
                <rect id="Rectangle-Copy-6" fill="#00BAF1" x="0" y="0" width="20" height="20" rx="9.85915493"></rect>
                <path d="M15.9999813,7.11357486 C15.5793464,7.30254389 15.1280112,7.43070051 14.6538002,7.48791566 C15.1380019,7.19394491 15.5086461,6.72766609 15.6843137,6.17376591 C15.2301214,6.44600171 14.7287769,6.64367986 14.1945845,6.75083994 C13.7668161,6.28817729 13.1583567,6 12.4834734,6 C11.1887208,6 10.1389169,7.0643494 10.1389169,8.37632186 C10.1389169,8.56239414 10.1596265,8.7441308 10.1996265,8.91791566 C8.25142857,8.8187074 6.52390289,7.87238554 5.36769374,6.4344148 C5.16558357,6.78486231 5.05060691,7.19320654 5.05060691,7.62909811 C5.05060691,8.45379517 5.46481791,9.18146129 6.09327731,9.60718589 C5.70905694,9.59416006 5.34769374,9.487 5.0313352,9.30887951 L5.0313352,9.33856626 C5.0313352,10.4897986 5.83975723,11.4506041 6.91169,11.6692788 C6.71529411,11.7228589 6.50819794,11.7525456 6.29394957,11.7525456 C6.14255834,11.7525456 5.99615311,11.7373425 5.85260503,11.7083752 C6.15111111,12.6532582 7.016676,13.3403701 8.04220354,13.3592083 C7.24020543,13.9963752 6.22896357,14.3750516 5.13060691,14.3750516 C4.9413632,14.3750516 4.75495797,14.3634647 4.57142857,14.3424682 C5.60909431,15.0180121 6.8410084,15.4118916 8.16504203,15.4118916 C12.4777965,15.4118916 14.8352194,11.7902031 14.8352194,8.64929603 L14.8273576,8.34158003 C15.2879739,8.00849397 15.6864613,7.59000171 15.9999813,7.11357486 Z" id="Path-Copy-5" fill="#FFFFFF"></path>
            </g>
        </g>
    </g>
</svg>